<svg width="128" height="30" viewBox="0 0 128 30" fill="none" xmlns="http://www.w3.org/2000/svg">
<rect x="1.17969" y="1.14868" width="125.528" height="27.4737" fill="#E8D100"/>
<rect x="1.17969" y="1.14868" width="125.528" height="27.4737" stroke="#2B2B2B" stroke-width="2"/>
<path d="M13.571 9.79472L16.032 17.5305H16.1264L18.5923 9.79472H20.9787L17.4688 19.9765H14.6946L11.1797 9.79472H13.571Z" fill="black"/>
<path d="M24.3569 9.79472V19.9765H22.2042V9.79472H24.3569Z" fill="black"/>
<path d="M26.128 19.9765V9.79472H32.9888V11.5696H28.2807V13.9957H32.6358V15.7706H28.2807V18.2017H33.0087V19.9765H26.128Z" fill="black"/>
<path d="M36.9922 19.9765L34.0788 9.79472H36.4304L38.1158 16.8693H38.2003L40.0597 9.79472H42.0732L43.9276 16.8842H44.017L45.7024 9.79472H48.054L45.1406 19.9765H43.0426L41.1037 13.3196H41.0241L39.0902 19.9765H36.9922Z" fill="black"/>
<path d="M52.4464 19.9765V9.79472H56.4634C57.2357 9.79472 57.8936 9.94221 58.4371 10.2372C58.9807 10.5289 59.395 10.9349 59.68 11.4552C59.9684 11.9723 60.1126 12.5689 60.1126 13.245C60.1126 13.9211 59.9667 14.5177 59.6751 15.0348C59.3834 15.5518 58.9608 15.9545 58.4073 16.2429C57.8571 16.5312 57.1909 16.6754 56.4087 16.6754H53.8484V14.9503H56.0607C56.475 14.9503 56.8164 14.879 57.0849 14.7365C57.3567 14.5907 57.5588 14.3901 57.6914 14.1349C57.8273 13.8764 57.8952 13.5798 57.8952 13.245C57.8952 12.9069 57.8273 12.612 57.6914 12.3601C57.5588 12.1049 57.3567 11.9076 57.0849 11.7684C56.8131 11.6259 56.4684 11.5547 56.0508 11.5547H54.5991V19.9765H52.4464Z" fill="black"/>
<path d="M61.5108 19.9765V9.79472H65.5279C66.2968 9.79472 66.9531 9.93227 67.4966 10.2074C68.0435 10.4791 68.4595 10.8653 68.7445 11.3657C69.0328 11.8629 69.177 12.4479 69.177 13.1207C69.177 13.7969 69.0312 14.3785 68.7395 14.8657C68.4479 15.3496 68.0253 15.7209 67.4718 15.9794C66.9216 16.2379 66.2554 16.3672 65.4732 16.3672H62.7836V14.6371H65.1252C65.5362 14.6371 65.8775 14.5807 66.1493 14.468C66.4211 14.3553 66.6233 14.1863 66.7559 13.9609C66.8917 13.7355 66.9597 13.4555 66.9597 13.1207C66.9597 12.7826 66.8917 12.4976 66.7559 12.2656C66.6233 12.0336 66.4195 11.8579 66.1444 11.7386C65.8726 11.616 65.5295 11.5547 65.1152 11.5547H63.6635V19.9765H61.5108ZM67.0094 15.343L69.54 19.9765H67.1635L64.6877 15.343H67.0094Z" fill="black"/>
<path d="M80.0549 14.8856C80.0549 15.996 79.8444 16.9406 79.4235 17.7194C79.0059 18.4983 78.4358 19.0933 77.7132 19.5042C76.994 19.9119 76.1853 20.1157 75.2871 20.1157C74.3823 20.1157 73.5703 19.9103 72.851 19.4993C72.1318 19.0883 71.5634 18.4933 71.1458 17.7145C70.7282 16.9356 70.5194 15.9926 70.5194 14.8856C70.5194 13.7753 70.7282 12.8307 71.1458 12.0518C71.5634 11.2729 72.1318 10.6797 72.851 10.272C73.5703 9.86101 74.3823 9.65552 75.2871 9.65552C76.1853 9.65552 76.994 9.86101 77.7132 10.272C78.4358 10.6797 79.0059 11.2729 79.4235 12.0518C79.8444 12.8307 80.0549 13.7753 80.0549 14.8856ZM77.8723 14.8856C77.8723 14.1664 77.7646 13.5599 77.5492 13.066C77.3371 12.5722 77.0371 12.1977 76.6493 11.9425C76.2615 11.6872 75.8075 11.5596 75.2871 11.5596C74.7667 11.5596 74.3127 11.6872 73.9249 11.9425C73.5371 12.1977 73.2355 12.5722 73.0201 13.066C72.8079 13.5599 72.7019 14.1664 72.7019 14.8856C72.7019 15.6049 72.8079 16.2114 73.0201 16.7052C73.2355 17.1991 73.5371 17.5736 73.9249 17.8288C74.3127 18.084 74.7667 18.2116 75.2871 18.2116C75.8075 18.2116 76.2615 18.084 76.6493 17.8288C77.0371 17.5736 77.3371 17.1991 77.5492 16.7052C77.7646 16.2114 77.8723 15.6049 77.8723 14.8856Z" fill="black"/>
<path d="M85.7262 9.79472H87.854V16.8942C87.854 17.5504 87.7066 18.1205 87.4116 18.6044C87.1199 19.0883 86.7139 19.4612 86.1935 19.723C85.6732 19.9848 85.0683 20.1157 84.3789 20.1157C83.7657 20.1157 83.2089 20.008 82.7085 19.7926C82.2113 19.5738 81.8169 19.2424 81.5252 18.7983C81.2335 18.3508 81.0894 17.789 81.0927 17.1129H83.2354C83.2421 17.3814 83.2968 17.6117 83.3995 17.804C83.5056 17.9929 83.6497 18.1387 83.832 18.2415C84.0176 18.3409 84.2364 18.3906 84.4883 18.3906C84.7534 18.3906 84.9772 18.3343 85.1594 18.2216C85.3451 18.1056 85.4859 17.9365 85.582 17.7145C85.6781 17.4924 85.7262 17.219 85.7262 16.8942V9.79472Z" fill="black"/>
<path d="M89.6339 19.9765V9.79472H96.4947V11.5696H91.7866V13.9957H96.1417V15.7706H91.7866V18.2017H96.5146V19.9765H89.6339Z" fill="black"/>
<path d="M107.19 13.3594H105.012C104.972 13.0776 104.891 12.8274 104.769 12.6086C104.646 12.3866 104.489 12.1977 104.296 12.0419C104.104 11.8861 103.882 11.7668 103.63 11.6839C103.382 11.6011 103.111 11.5596 102.82 11.5596C102.293 11.5596 101.834 11.6906 101.443 11.9524C101.052 12.2109 100.748 12.5888 100.533 13.0859C100.317 13.5798 100.21 14.1797 100.21 14.8856C100.21 15.6115 100.317 16.2213 100.533 16.7152C100.752 17.209 101.057 17.5819 101.448 17.8338C101.839 18.0857 102.291 18.2116 102.805 18.2116C103.093 18.2116 103.36 18.1735 103.605 18.0973C103.854 18.021 104.074 17.91 104.267 17.7642C104.459 17.615 104.618 17.4344 104.744 17.2223C104.873 17.0102 104.963 16.7682 105.012 16.4964L107.19 16.5064C107.133 16.9737 106.993 17.4245 106.767 17.8586C106.545 18.2895 106.245 18.6756 105.867 19.017C105.493 19.3551 105.045 19.6236 104.525 19.8224C104.008 20.018 103.423 20.1157 102.77 20.1157C101.862 20.1157 101.05 19.9103 100.334 19.4993C99.6214 19.0883 99.0579 18.4933 98.6436 17.7145C98.2327 16.9356 98.0272 15.9926 98.0272 14.8856C98.0272 13.7753 98.236 12.8307 98.6536 12.0518C99.0712 11.2729 99.638 10.6797 100.354 10.272C101.07 9.86101 101.875 9.65552 102.77 9.65552C103.36 9.65552 103.907 9.73838 104.411 9.9041C104.918 10.0698 105.367 10.3118 105.758 10.6299C106.149 10.9448 106.467 11.3309 106.713 11.7883C106.961 12.2457 107.12 12.7694 107.19 13.3594Z" fill="black"/>
<path d="M108.346 11.5696V9.79472H116.708V11.5696H113.591V19.9765H111.463V11.5696H108.346Z" fill="black"/>
</svg>
